<svg xmlns:svgjs="http://svgjs.com/svgjs" xmlns="http://www.w3.org/2000/svg" xmlns:xlink="http://www.w3.org/1999/xlink" version="1.1" x="0px" y="0px" viewBox="0 0 100 125" style="enable-background:new 0 0 100 100;" xml:space="preserve"><path d="M50,1.4C23.1,1.4,1.4,23.1,1.4,50S23.1,98.6,50,98.6S98.6,76.9,98.6,50C98.6,23.1,76.8,1.4,50,1.4z M50,90.5  C27.6,90.5,9.5,72.4,9.5,50S27.6,9.5,50,9.5S90.5,27.6,90.5,50C90.5,72.4,72.4,90.5,50,90.5z M70.3,50c0,2.2-1.8,4-4.1,4H54v12.2  c0,2.2-1.8,4.1-4,4.1s-4-1.8-4-4.1V54H33.8c-2.2,0-4-1.8-4-4s1.8-4,4-4H46V33.8c0-2.2,1.8-4,4-4s4,1.8,4,4V46h12.2  C68.4,46,70.3,47.8,70.3,50z"/><text x="0" y="115" fill="#000000" font-size="5px" font-weight="bold" font-family="'Helvetica Neue', Helvetica, Arial-Unicode, Arial, Sans-serif">Created by Kriya Barot</text><text x="0" y="120" fill="#000000" font-size="5px" font-weight="bold" font-family="'Helvetica Neue', Helvetica, Arial-Unicode, Arial, Sans-serif"></text></svg>